# xmcd
#
# Track frame offsets: 
#        150
#        16479
#        34586
#        58612
#        79376
#        97281
#        136036
#        152565
#        168438
#        192826
#        209569
#        225304
#        250801
#
# Disc length: 3666 seconds
#
# Revision: 0
# Processed by: cddbd v1.5.2PL0 Copyright (c) Steve Scherf et al.
# Submitted via: ExactAudioCopy v1.3
#
DISCID=a70e500d
DTITLE=Neal and The Vipers - One Drunken Kiss 
DYEAR=2018
DGENRE=Blues
TTITLE0=Slow Down
TTITLE1=Not OneTo Complain
TTITLE2=More Than Ever
TTITLE3=Right Place Wrong Time
TTITLE4=One Druken Kiss
TTITLE5=There's A Ghost In My Room
TTITLE6=Ain't Foolin' Nobody
TTITLE7=The Hump
TTITLE8=One Chance With You
TTITLE9=My Sweet Little Hostage
TTITLE10=Ubangi Stomp
TTITLE11=Those Eyes
TTITLE12=Sugar Coated Love
EXTD=
EXTT0=
EXTT1=
EXTT2=
EXTT3=
EXTT4=
EXTT5=
EXTT6=
EXTT7=
EXTT8=
EXTT9=
EXTT10=
EXTT11=
EXTT12=
PLAYORDER=
